# xmcd CD database file
#
# Track frame offsets:
#	150
#	21537
#	39612
#	47723
#	69091
#	91399
#
# Disc length: 1454 seconds
#
# Revision: 0
# Processed by: cddbd v1.5.1PL2 Copyright (c) Steve Scherf et al.
# Submitted via: CDex 1.51
#
DISCID=4905ac06
DTITLE=LIPNITZ - SILENCE
DYEAR=2005
DGENRE=Pop
TTITLE0=silence
TTITLE1=輪郭
TTITLE2=流星train 〜instrumental〜
TTITLE3=未来の花
TTITLE4=秋桜風
TTITLE5=左のフェアリー
EXTD=YEAR: 2005
EXTT0=
EXTT1=
EXTT2=
EXTT3=
EXTT4=
EXTT5=
PLAYORDER=
